# xmcd
#
# Track frame offsets:
#	150
#	13491
#	29166
#	39359
#	54101
#	66613
#	79833
#	98518
#	112118
#	127253
#
# Disc length: 1904 seconds
#
# Revision: 1
# Processed by: cddbd v1.4PL0 Copyright (c) Steve Scherf et al.
# Submitted via: EasyCDDAExtractor 5.0.7
#
DISCID=8e076e0a
DTITLE=Kenny Rogers - And The First Edition
DYEAR=1900
DGENRE=Country
TTITLE0=Ruby Don't Take Your Love To Town
TTITLE1=Good Lady Of Toronto
TTITLE2=Where Does Rosie Go?
TTITLE3=For The Good Times
TTITLE4=Love Woman
TTITLE5=Shine On Ruby Mountain
TTITLE6=The Ring Of Oak Street
TTITLE7=I'm Gonna Sing A Sad Song To Suzy
TTITLE8=Tell It All Brother
TTITLE9=Lay It Down
EXTD=
EXTT0=
EXTT1=
EXTT2=
EXTT3=
EXTT4=
EXTT5=
EXTT6=
EXTT7=
EXTT8=
EXTT9=
PLAYORDER=
